<?xml version="1.0" encoding="UTF-8"?>
<svg width="1080" height="1920" viewBox="0 0 1080 1920" xmlns="http://www.w3.org/2000/svg">
  <defs>
    <pattern id="dots" x="0" y="0" width="40" height="40" patternUnits="userSpaceOnUse">
      <circle cx="20" cy="20" r="1.4" fill="#F4EDE3" opacity="0.07"/>
    </pattern>
  </defs>
  <!-- Background -->
  <rect width="1080" height="1920" fill="#3D5C35"/>
  <!-- Dot texture -->
  <rect width="1080" height="1920" fill="url(#dots)"/>
  <!-- Inset border -->
  <rect x="26" y="26" width="1028" height="1868" fill="none" stroke="#F4EDE3" stroke-width="0.45"/>
  <!-- Corner brackets -->
  
  <!-- TL -->
  <polyline points="80,36 36,36 36,80" fill="none" stroke="#F4EDE3" stroke-width="1.3" stroke-linecap="square"/>
  <!-- TR -->
  <polyline points="1000,36 1044,36 1044,80" fill="none" stroke="#F4EDE3" stroke-width="1.3" stroke-linecap="square"/>
  <!-- BL -->
  <polyline points="80,1884 36,1884 36,1840" fill="none" stroke="#F4EDE3" stroke-width="1.3" stroke-linecap="square"/>
  <!-- BR -->
  <polyline points="1000,1884 1044,1884 1044,1840" fill="none" stroke="#F4EDE3" stroke-width="1.3" stroke-linecap="square"/>
  <!-- Top header zone -->
  <rect x="0" y="0" width="1080" height="200" fill="#F4EDE3" opacity="0.05"/>
  <line x1="60" y1="200" x2="1020" y2="200" stroke="#F4EDE3" stroke-width="0.5"/>
  <!-- Logo/wordmark top -->
  <text x="540" y="88" text-anchor="middle" font-family="Cormorant Garamond,Georgia,serif" font-size="40" fill="#F4EDE3" font-weight="600" letter-spacing="12">DE LUCA</text>
  <line x1="340" y1="100" x2="740" y2="100" stroke="#F4EDE3" stroke-width="0.5"/>
  <text x="540" y="120" text-anchor="middle" font-family="DM Sans,Arial,sans-serif" font-size="9" fill="#F4EDE3" font-weight="400" letter-spacing="3.5">ITALIAN RESTAURANT</text>
  <!-- Olive sprig centred (scaled-down inline) -->
  <g transform="translate(500,860) scale(0.65)" opacity="0.35">
    <path d="M60 88 C58 70,52 54,42 38 C36 28,30 18,32 8" fill="none" stroke="#F4EDE3" stroke-width="2" stroke-linecap="round"/>
    <path d="M54 62 C62 56,74 54,80 46" fill="none" stroke="#F4EDE3" stroke-width="1.4" stroke-linecap="round"/>
    <ellipse cx="82" cy="43" rx="8" ry="5" transform="rotate(-35 82 43)" fill="none" stroke="#F4EDE3" stroke-width="1.4"/>
    <path d="M48 55 C40 50,30 50,24 43" fill="none" stroke="#F4EDE3" stroke-width="1.4" stroke-linecap="round"/>
    <ellipse cx="22" cy="40" rx="8" ry="5" transform="rotate(35 22 40)" fill="none" stroke="#F4EDE3" stroke-width="1.4"/>
    <path d="M44 40 C36 36,27 36,22 29" fill="none" stroke="#F4EDE3" stroke-width="1.4" stroke-linecap="round"/>
    <ellipse cx="20" cy="26" rx="7.5" ry="4.5" transform="rotate(40 20 26)" fill="none" stroke="#F4EDE3" stroke-width="1.4"/>
  </g>
  <!-- Bottom CTA band -->
  <line x1="60" y1="1720" x2="1020" y2="1720" stroke="#F4EDE3" stroke-width="0.5"/>
  <rect x="0" y="1720" width="1080" height="200" fill="#F4EDE3" opacity="0.05"/>
  <!-- CTA placeholder text -->
  <text x="540" y="1798" text-anchor="middle" font-family="DM Sans,Arial,sans-serif" font-size="11" fill="#F4EDE3" font-weight="500" letter-spacing="3">PRENOTA UN TAVOLO</text>
  <text x="540" y="1828" text-anchor="middle" font-family="DM Sans,Arial,sans-serif" font-size="9" fill="#F4EDE3" opacity="0.6" letter-spacing="2">BOOK YOUR TABLE</text>
  
</svg>