<?xml version="1.0" encoding="UTF-8"?>
<svg width="120" height="90" viewBox="0 0 120 90" xmlns="http://www.w3.org/2000/svg">
  <!-- Main stem -->
  <path d="M60 88 C58 70, 52 54, 42 38 C36 28, 30 18, 32 8" fill="none" stroke="currentColor" stroke-width="1.3" stroke-linecap="round"/>
  <!-- Branch right 1 -->
  <path d="M54 62 C62 56, 74 54, 80 46" fill="none" stroke="currentColor" stroke-width="0.9" stroke-linecap="round"/>
  <ellipse cx="82" cy="43" rx="8" ry="5" transform="rotate(-35 82 43)" fill="none" stroke="currentColor" stroke-width="0.9"/>
  <!-- Branch right 2 -->
  <path d="M49 48 C57 42, 68 41, 74 33" fill="none" stroke="currentColor" stroke-width="0.9" stroke-linecap="round"/>
  <ellipse cx="76" cy="30" rx="8" ry="5" transform="rotate(-40 76 30)" fill="none" stroke="currentColor" stroke-width="0.9"/>
  <!-- Branch left 1 -->
  <path d="M48 55 C40 50, 30 50, 24 43" fill="none" stroke="currentColor" stroke-width="0.9" stroke-linecap="round"/>
  <ellipse cx="22" cy="40" rx="8" ry="5" transform="rotate(35 22 40)" fill="none" stroke="currentColor" stroke-width="0.9"/>
  <!-- Branch left 2 -->
  <path d="M44 40 C36 36, 27 36, 22 29" fill="none" stroke="currentColor" stroke-width="0.9" stroke-linecap="round"/>
  <ellipse cx="20" cy="26" rx="7.5" ry="4.5" transform="rotate(40 20 26)" fill="none" stroke="currentColor" stroke-width="0.9"/>
  <!-- Branch right top -->
  <path d="M40 28 C46 22, 56 20, 60 13" fill="none" stroke="currentColor" stroke-width="0.9" stroke-linecap="round"/>
  <ellipse cx="62" cy="10" rx="7" ry="4.5" transform="rotate(-45 62 10)" fill="none" stroke="currentColor" stroke-width="0.9"/>
  <!-- Small olives -->
  <circle cx="70" cy="57" r="3.5" fill="none" stroke="currentColor" stroke-width="0.9"/>
  <circle cx="64" cy="43" r="3" fill="none" stroke="currentColor" stroke-width="0.9"/>
  <circle cx="30" cy="46" r="3" fill="none" stroke="currentColor" stroke-width="0.9"/>
</svg>